<svg width="62" height="82" viewBox="0 0 62 82" fill="none" xmlns="http://www.w3.org/2000/svg">
<path d="M52.3235 9.03457C46.9308 3.60734 39.7011 0.396413 32.0587 0.0343254C24.4164 -0.327762 16.9155 2.18524 11.0338 7.0783C5.15207 11.9714 1.31602 18.8897 0.281308 26.4703C-0.753403 34.051 1.08827 41.7442 5.44351 48.0346V48.0946L26.6935 79.7446C26.8046 79.9111 26.9248 80.0713 27.0535 80.2246L27.1535 80.3246C27.2357 80.4251 27.326 80.5188 27.4235 80.6046L27.5635 80.7346L27.8335 80.9446L27.9935 81.0646L28.0935 81.1146C28.2335 81.2046 28.3835 81.2846 28.5335 81.3646L28.7435 81.4546L29.1135 81.5946L29.3635 81.6746L29.7435 81.7546L29.9835 81.8046C30.17 81.8149 30.357 81.8149 30.5435 81.8046H30.6435C30.8334 81.8145 31.0236 81.8145 31.2135 81.8046L31.4435 81.7546L31.8235 81.6746L32.0735 81.5946L32.4435 81.4546L32.6535 81.3646C32.8035 81.2846 32.9535 81.2046 33.0935 81.1146L33.1935 81.0646L33.3535 80.9446L33.6235 80.7346L33.7735 80.6046L34.0335 80.3346L34.1435 80.2146C34.2681 80.0674 34.3849 79.9139 34.4935 79.7546L55.8035 48.0946V48.0346C59.8618 42.1481 61.7353 35.0283 61.0998 27.9067C60.4644 20.7851 57.36 14.1095 52.3235 9.03457Z" fill="#2BA3B2"/>
<path d="M45.6939 45.6946C42.7256 48.6704 38.9411 50.6987 34.8195 51.5226C30.6978 52.3465 26.4244 51.9289 22.5402 50.3229C18.656 48.7169 15.3356 45.9945 12.9993 42.5005C10.6631 39.0064 9.41602 34.8977 9.41602 30.6946C9.41602 26.4914 10.6631 22.3828 12.9993 18.8887C15.3356 15.3947 18.656 12.6723 22.5402 11.0663C26.4244 9.46024 30.6978 9.04276 34.8195 9.86665C38.9411 10.6905 42.7256 12.7188 45.6939 15.6946C47.6785 17.6561 49.2542 19.9919 50.3295 22.5668C51.4049 25.1416 51.9586 27.9042 51.9586 30.6946C51.9586 33.485 51.4049 36.2476 50.3295 38.8224C49.2542 41.3973 47.6785 43.7331 45.6939 45.6946Z" fill="#04444D"/>
<path d="M14.3438 29.4646H26.9837C27.1621 28.8796 27.4816 28.3474 27.9141 27.9149C28.3466 27.4825 28.8787 27.163 29.4637 26.9846V14.3446C27.5224 14.4835 25.622 14.9713 23.8538 15.7846V23.7846H15.7938C14.968 25.5736 14.4765 27.4987 14.3438 29.4646Z" fill="white"/>
<path d="M34.3838 29.4647H47.0237C46.8814 27.5131 46.3903 25.6029 45.5738 23.8246H37.5138V15.8246C35.7451 15.0126 33.8449 14.5248 31.9037 14.3846V26.9846C32.4846 27.1658 33.013 27.4849 33.4438 27.9146C33.8745 28.3503 34.1965 28.8813 34.3838 29.4647Z" fill="white"/>
<path d="M23.8538 45.5847C25.6237 46.3933 27.5232 46.8809 29.4637 47.0247V34.3846C28.8804 34.1974 28.3494 33.8754 27.9138 33.4446C27.484 33.0139 27.1649 32.4855 26.9837 31.9047H14.3438C14.4804 33.8356 14.9649 35.726 15.7737 37.4846H23.8538V45.5847Z" fill="white"/>
<path d="M31.9037 46.9846C33.8441 46.8396 35.7434 46.352 37.5138 45.5446V37.4446H45.6237C46.4279 35.6843 46.9121 33.7948 47.0537 31.8646H34.3838C34.197 32.4452 33.8747 32.973 33.4434 33.4043C33.0122 33.8356 32.4844 34.1579 31.9037 34.3446V46.9846Z" fill="white"/>
</svg>
